FFmpeg version SVN-r25716, Copyright (c) 2000-2010 the FFmpeg developers  built on Nov 10 2010 12:23:18 with gcc 4.1.2 20080704 (Red Hat 4.1.2-48)  configuration: --enable-libmp3lame --enable-shared --disable-mmx --arch=x86_64  libavutil     50.33. 0 / 50.33. 0  libavcore      0.12. 1 /  0.12. 1  libavcodec    52.94. 4 / 52.94. 4  libavformat   52.84. 0 / 52.84. 0  libavdevice   52. 2. 2 / 52. 2. 2  libavfilter    1.59. 0 /  1.59. 0  libswscale     0.12. 0 /  0.12. 0Input #0, avi, from '/RAID10/data/converted_video_files/47603.avi':  Duration: 00:00:07.10, start: 0.000000, bitrate: 187139 kb/s    Stream #0.0: Video: msvideo1, rgb555le, 1024x1024, 20 tbr, 20 tbn, 20 tbc[buffer @ 0x1d97380] w:1024 h:1024 pixfmt:rgb555le[ffsink @ 0x1d96700] auto-inserting filter 'auto-inserted scaler 0' between the filter 'src' and the filter 'out'[scale @ 0x1d969f0] w:1024 h:1024 fmt:rgb555le -> w:1024 h:1024 fmt:yuv420p flags:0x4Output #0, flv, to '/RAID10/data/converted_video_files/47603.flv':  Metadata:    encoder         : Lavf52.84.0    Stream #0.0: Video: flv, yuv420p, 1024x1024, q=2-31, 600 kb/s, 1k tbn, 24 tbcStream mapping:  Stream #0.0 -> #0.0Press [q] to stop encodingframe=    7 fps=  0 q=10.0 size=    1041kB time=0.33 bitrate=25527.0kbits/s    frame=   15 fps= 13 q=30.7 size=    1162kB time=0.75 bitrate=12694.9kbits/s    frame=   25 fps= 15 q=24.8 size=    1222kB time=1.25 bitrate=8006.8kbits/s    frame=   35 fps= 16 q=31.0 size=    1262kB time=1.75 bitrate=5910.9kbits/s    frame=   45 fps= 17 q=31.0 size=    1324kB time=2.25 bitrate=4820.6kbits/s    frame=   52 fps= 16 q=31.0 size=    1379kB time=2.58 bitrate=4370.3kbits/s    frame=   61 fps= 16 q=24.8 size=    1435kB time=3.04 bitrate=3865.2kbits/s    frame=   71 fps= 16 q=31.0 size=    1477kB time=3.54 bitrate=3417.1kbits/s    frame=   81 fps= 17 q=31.0 size=    1542kB time=4.04 bitrate=3124.4kbits/s    frame=   91 fps= 17 q=31.0 size=    1610kB time=4.54 bitrate=2903.3kbits/s    frame=  101 fps= 17 q=31.0 size=    1681kB time=5.04 bitrate=2732.2kbits/s    frame=  111 fps= 17 q=31.0 size=    1759kB time=5.54 bitrate=2600.2kbits/s    frame=  121 fps= 18 q=24.8 size=    1837kB time=6.04 bitrate=2490.7kbits/s    frame=  131 fps= 18 q=31.0 size=    1885kB time=6.54 bitrate=2361.3kbits/s    frame=  141 fps= 18 q=31.0 size=    1958kB time=7.04 bitrate=2277.7kbits/s    frame=  142 fps= 18 q=31.0 Lsize=    1962kB time=7.08 bitrate=2269.3kbits/s    video:1960kB audio:0kB global headers:0kB muxing overhead 0.123667%